<svg width="22" height="10" viewBox="0 0 22 10" fill="none" xmlns="http://www.w3.org/2000/svg">
<path d="M19.1694 0.751042C19.8592 0.292321 20.7903 0.479674 21.2491 1.1695C21.7078 1.85934 21.5204 2.79042 20.8306 3.24914L19.1694 0.751042ZM11 7.98486L11.8306 9.23391L11 9.78623L10.1694 9.23391L11 7.98486ZM1.16941 3.24914C0.479582 2.79042 0.29223 1.85934 0.75095 1.1695C1.20967 0.479674 2.14076 0.292321 2.83059 0.751041L1.16941 3.24914ZM20.8306 3.24914L11.8306 9.23391L10.1694 6.73581L19.1694 0.751042L20.8306 3.24914ZM10.1694 9.23391L1.16941 3.24914L2.83059 0.751041L11.8306 6.73581L10.1694 9.23391Z" fill="#7DBA28"/>
</svg>
