<svg width="607" height="607" viewBox="0 0 607 607" fill="none" xmlns="http://www.w3.org/2000/svg">
<path d="M303.481 71.1083C293.66 71.1083 285.698 79.0704 285.698 88.8915C285.698 98.7125 293.66 106.675 303.481 106.675C362.325 106.675 410.198 154.54 410.198 213.374C410.198 223.195 418.161 231.157 427.982 231.157C437.803 231.157 445.765 223.195 445.765 213.374C445.765 134.929 381.937 71.1083 303.481 71.1083Z" fill="#7DBA28" fill-opacity="0.05"/>
<path d="M257.66 4.76508C177.316 21.5536 112.17 86.0758 95.028 166.919C80.5537 235.186 98.3902 303.722 143.964 354.955C166.241 379.998 179.017 413.054 179.017 445.741V481.308C179.017 504.971 194.508 525.074 215.879 532.037C222.907 573.561 258.948 606.974 303.499 606.974C348.039 606.974 384.089 573.572 391.12 532.037C412.49 525.074 427.982 504.971 427.982 481.306V445.74C427.982 412.989 440.8 380.33 464.072 353.778C498.138 314.916 516.898 265.052 516.898 213.374C516.898 78.7373 393.661 -23.6477 257.66 4.76508ZM303.499 571.409C280.64 571.409 260.597 555.679 253.195 534.539H353.802C346.402 555.679 326.359 571.409 303.499 571.409ZM392.415 481.308C392.415 491.113 384.438 499.091 374.632 499.091H232.367C222.561 499.091 214.583 491.113 214.583 481.308V463.524H392.415V481.308ZM437.326 330.336C412.525 358.632 397.265 392.752 393.393 427.958H213.609C209.742 392.733 194.522 358.277 170.54 331.317C132.558 288.618 117.716 231.386 129.821 174.297C143.952 107.653 198.25 53.5148 264.936 39.581C378.777 15.7907 481.331 101.283 481.331 213.374C481.331 256.423 465.703 297.962 437.326 330.336Z" fill="#7DBA28" fill-opacity="0.05"/>
<path d="M53.3496 213.374H17.7832C7.96213 213.374 0 221.336 0 231.157C0 240.978 7.96213 248.94 17.7832 248.94H53.3496C63.1707 248.94 71.1328 240.978 71.1328 231.157C71.1328 221.336 63.1707 213.374 53.3496 213.374Z" fill="#7DBA28" fill-opacity="0.05"/>
<path d="M60.7147 124.458L35.5657 99.3088C28.622 92.3638 17.3616 92.3638 10.4167 99.3088C3.47177 106.254 3.47177 117.513 10.4167 124.458L35.5657 149.607C42.5095 156.552 53.7698 156.553 60.7147 149.607C67.6597 142.662 67.6597 131.403 60.7147 124.458Z" fill="#7DBA28" fill-opacity="0.05"/>
<path d="M60.7147 312.707C53.7698 305.762 42.5095 305.762 35.5657 312.707L10.4167 337.856C3.47177 344.801 3.47177 356.06 10.4167 363.005C17.3605 369.95 28.6208 369.951 35.5657 363.005L60.7147 337.856C67.6597 330.911 67.6597 319.652 60.7147 312.707Z" fill="#7DBA28" fill-opacity="0.05"/>
<path d="M589.217 213.374H553.65C543.829 213.374 535.867 221.336 535.867 231.157C535.867 240.978 543.829 248.94 553.65 248.94H589.217C599.038 248.94 607 240.978 607 231.157C607 221.336 599.038 213.374 589.217 213.374Z" fill="#7DBA28" fill-opacity="0.05"/>
<path d="M596.583 99.3088C589.639 92.3638 578.379 92.3638 571.434 99.3088L546.285 124.458C539.34 131.403 539.34 142.662 546.285 149.607C553.229 156.551 564.489 156.552 571.434 149.607L596.583 124.458C603.528 117.513 603.528 106.254 596.583 99.3088Z" fill="#7DBA28" fill-opacity="0.05"/>
<path d="M596.583 337.856L571.434 312.707C564.49 305.762 553.23 305.762 546.285 312.707C539.34 319.652 539.34 330.911 546.285 337.856L571.434 363.005C578.378 369.949 589.638 369.95 596.583 363.005C603.528 356.06 603.528 344.801 596.583 337.856Z" fill="#7DBA28" fill-opacity="0.05"/>
</svg>
