<svg width="512" height="513" viewBox="0 0 512 513" fill="none" xmlns="http://www.w3.org/2000/svg">
<path d="M511.4 38.2219C510.291 17.8839 494.116 1.71088 473.778 0.600877C432.74 -1.64112 352.436 0.539879 275.648 40.2569C236.503 60.5049 195.103 94.8339 162.064 134.442C161.657 134.93 161.261 135.421 160.857 135.91L85.8773 141.702C73.5353 142.656 62.5422 149.125 55.7162 159.449L4.56225 236.821C-0.61475 244.651 -1.43775 254.45 2.35925 263.033C6.15725 271.617 13.9613 277.599 23.2362 279.036L86.4072 288.82C86.1842 290.048 85.9602 291.275 85.7552 292.503C83.6522 305.083 87.8202 318.017 96.9062 327.102L184.898 415.095C192.431 422.628 202.61 426.781 213.04 426.781C215.188 426.781 217.348 426.604 219.498 426.245C220.726 426.04 221.953 425.816 223.181 425.593L232.965 488.765C234.402 498.04 240.384 505.845 248.966 509.642C252.537 511.222 256.316 512.002 260.078 512.002C265.361 512.001 270.607 510.463 275.179 507.44L352.551 456.285C362.876 449.458 369.344 438.465 370.296 426.124L376.088 351.145C376.577 350.741 377.069 350.345 377.557 349.938C417.166 316.899 451.496 275.499 471.743 236.353C511.462 159.562 513.639 79.2569 511.4 38.2219V38.2219ZM336.006 431.259L261.995 480.192L252.459 418.627C283.739 409.43 314.682 394.7 344.161 374.967L340.388 423.812C340.153 426.859 338.555 429.574 336.006 431.259V431.259ZM206.111 393.882L118.118 305.889C115.873 303.643 114.835 300.488 115.344 297.449C117.96 281.806 122.025 266.915 127.057 252.887L259.085 384.915C242.237 390.95 227.146 394.55 214.551 396.656C211.507 397.162 208.356 396.127 206.111 393.882V393.882ZM88.1883 171.613L137.032 167.84C117.298 197.319 102.568 228.262 93.3713 259.542L31.8072 250.007L80.7412 175.995C82.4272 173.445 85.1423 171.848 88.1883 171.613V171.613ZM358.343 326.899C334.11 347.112 310.587 361.732 288.905 372.311L139.684 223.09C153.542 194.786 170.455 171.217 185.101 153.659C215.676 117.004 253.703 85.3829 289.432 66.9029C359.906 30.4499 434.157 28.4869 472.145 30.5549C477.173 30.8289 481.172 34.8279 481.446 39.8569C483.517 77.8449 481.55 152.095 445.097 222.57C426.618 258.298 394.997 296.324 358.343 326.899Z" fill="#7DBA28" fill-opacity="0.05"/>
<path d="M350.721 236.243C369.923 236.241 389.133 228.931 403.752 214.312C417.918 200.147 425.718 181.313 425.718 161.281C425.718 141.249 417.917 122.415 403.752 108.25C374.51 79.0069 326.93 79.0089 297.69 108.25C283.524 122.415 275.723 141.249 275.723 161.281C275.723 181.313 283.525 200.147 297.69 214.312C312.312 228.934 331.512 236.245 350.721 236.243ZM318.901 129.462C327.673 120.689 339.196 116.303 350.719 116.303C362.243 116.303 373.766 120.689 382.538 129.462C391.037 137.961 395.717 149.261 395.717 161.28C395.717 173.299 391.037 184.6 382.538 193.099C364.994 210.644 336.445 210.643 318.9 193.099C310.401 184.6 305.72 173.3 305.72 161.281C305.72 149.262 310.402 137.961 318.901 129.462Z" fill="#7DBA28" fill-opacity="0.05"/>
<path d="M15.3013 421.938C19.1403 421.938 22.9793 420.474 25.9073 417.544L74.8803 368.571C80.7383 362.713 80.7383 353.216 74.8803 347.358C69.0233 341.5 59.5253 341.5 53.6673 347.358L4.69526 396.331C-1.16274 402.189 -1.16274 411.686 4.69526 417.544C7.62326 420.473 11.4623 421.938 15.3013 421.938V421.938Z" fill="#7DBA28" fill-opacity="0.05"/>
<path d="M119.761 392.239C113.904 386.381 104.406 386.381 98.5485 392.239L4.39448 486.394C-1.46352 492.252 -1.46352 501.749 4.39448 507.607C7.32348 510.536 11.1615 512 15.0005 512C18.8395 512 22.6785 510.536 25.6065 507.606L119.76 413.452C125.619 407.594 125.619 398.097 119.761 392.239V392.239Z" fill="#7DBA28" fill-opacity="0.05"/>
<path d="M143.429 437.12L94.456 486.093C88.598 491.951 88.598 501.448 94.456 507.306C97.385 510.235 101.224 511.7 105.062 511.7C108.9 511.7 112.74 510.236 115.668 507.306L164.641 458.333C170.499 452.475 170.499 442.978 164.641 437.12C158.784 431.262 149.286 431.262 143.429 437.12Z" fill="#7DBA28" fill-opacity="0.05"/>
</svg>
