<svg width="23" height="22" viewBox="0 0 23 22" fill="none" xmlns="http://www.w3.org/2000/svg">
<path d="M15.9832 6.36426L11.6459 4.6989V3.22355H14.0659C14.4091 3.22355 14.6138 2.84103 14.4234 2.55549L14.1683 2.17292C14.0721 2.02858 14.0721 1.84054 14.1683 1.69616L14.4234 1.3136C14.6138 1.02806 14.4091 0.645534 14.0659 0.645534H11.6459C11.6459 0.289566 11.3573 0.000976562 11.0014 0.000976562C10.6454 0.000976562 10.3568 0.289566 10.3568 0.645534V4.6989L6.01953 6.36426H15.9832Z" fill="#7DBA28"/>
<path d="M0.644558 8.94244C1.1764 8.94244 1.20335 9.47931 1.20335 9.58695C1.20335 9.69459 1.1764 10.2315 0.644558 10.2315H21.3563C20.8969 10.2315 20.8837 9.65291 20.8837 9.58695C20.8837 9.52099 20.8969 8.94244 21.3563 8.94244C21.7123 8.94244 22.0009 8.65385 22.0009 8.29788C22.0009 7.94191 21.7123 7.65332 21.3563 7.65332H0.644558C0.28859 7.65332 0 7.94191 0 8.29788C0 8.65385 0.28859 8.94244 0.644558 8.94244Z" fill="#7DBA28"/>
<path d="M10.9766 18.4351C10.6212 18.4351 10.332 18.7242 10.332 19.0796V22.0009H11.6211V19.0796C11.6211 18.7242 11.332 18.4351 10.9766 18.4351Z" fill="#7DBA28"/>
<path d="M15.918 22.0008H21.3565C21.7125 22.0008 22.0011 21.7123 22.0011 21.3563V11.5205H15.918V22.0008ZM18.1261 14.3531C18.1261 13.9971 18.4147 13.7085 18.7707 13.7085C19.1267 13.7085 19.4153 13.9971 19.4153 14.3531V15.2124C19.4153 15.5684 19.1267 15.857 18.7707 15.857C18.4147 15.857 18.1261 15.5684 18.1261 15.2124V14.3531ZM18.1261 17.7905C18.1261 17.4345 18.4147 17.1459 18.7707 17.1459C19.1267 17.1459 19.4153 17.4345 19.4153 17.7905V18.6498C19.4153 19.0058 19.1267 19.2944 18.7707 19.2944C18.4147 19.2944 18.1261 19.0058 18.1261 18.6498V17.7905Z" fill="#7DBA28"/>
<path d="M7.32422 22.0008H9.043V19.0795C9.043 18.0133 9.91044 17.1459 10.9767 17.1459C12.0429 17.1459 12.9103 18.0134 12.9103 19.0795V22.0008H14.6291V11.5205H7.32422V22.0008ZM11.6778 14.3531C11.6778 13.9971 11.9664 13.7085 12.3223 13.7085C12.6783 13.7085 12.9669 13.9971 12.9669 14.3531V15.2124C12.9669 15.5684 12.6783 15.857 12.3223 15.857C11.9664 15.857 11.6778 15.5684 11.6778 15.2124V14.3531ZM9.03509 14.3531C9.03509 13.9971 9.32368 13.7085 9.67965 13.7085C10.0356 13.7085 10.3242 13.9971 10.3242 14.3531V15.2124C10.3242 15.5684 10.0356 15.857 9.67965 15.857C9.32368 15.857 9.03509 15.5684 9.03509 15.2124V14.3531Z" fill="#7DBA28"/>
<path d="M0 21.3563C0 21.7123 0.28859 22.0008 0.644558 22.0008H6.03448V11.5205H0V21.3563ZM2.4247 14.3531C2.4247 13.9971 2.71329 13.7085 3.06925 13.7085C3.42522 13.7085 3.71381 13.9971 3.71381 14.3531V15.2124C3.71381 15.5684 3.42522 15.857 3.06925 15.857C2.71329 15.857 2.4247 15.5684 2.4247 15.2124V14.3531ZM2.4247 17.7905C2.4247 17.4345 2.71329 17.1459 3.06925 17.1459C3.42522 17.1459 3.71381 17.4345 3.71381 17.7905V18.6498C3.71381 19.0058 3.42522 19.2944 3.06925 19.2944C2.71329 19.2944 2.4247 19.0058 2.4247 18.6498V17.7905Z" fill="#7DBA28"/>
</svg>
