<svg width="22" height="22" viewBox="0 0 22 22" fill="none" xmlns="http://www.w3.org/2000/svg">
<g clip-path="url(#clip0_1293_174)">
<path d="M11.9442 1.71506L1.87 0.184231C1.4025 0.110898 0.925833 0.239231 0.568333 0.541731C0.210833 0.853398 0 1.30256 0 1.77006V21.0842C0 21.5884 0.4125 22.0009 0.916666 22.0009H3.89583V17.1884C3.89583 16.2992 4.61083 15.5842 5.5 15.5842H7.79166C8.68083 15.5842 9.39583 16.2992 9.39583 17.1884V22.0009H13.2917V3.3009C13.2917 2.51256 12.7233 1.8434 11.9442 1.71506ZM5.04167 13.5217H3.66667C3.28717 13.5217 2.97917 13.2137 2.97917 12.8342C2.97917 12.4547 3.28717 12.1467 3.66667 12.1467H5.04167C5.42117 12.1467 5.72917 12.4547 5.72917 12.8342C5.72917 13.2137 5.42117 13.5217 5.04167 13.5217ZM5.04167 10.7717H3.66667C3.28717 10.7717 2.97917 10.4637 2.97917 10.0842C2.97917 9.70473 3.28717 9.39673 3.66667 9.39673H5.04167C5.42117 9.39673 5.72917 9.70473 5.72917 10.0842C5.72917 10.4637 5.42117 10.7717 5.04167 10.7717ZM5.04167 8.02173H3.66667C3.28717 8.02173 2.97917 7.71373 2.97917 7.33423C2.97917 6.95473 3.28717 6.64673 3.66667 6.64673H5.04167C5.42117 6.64673 5.72917 6.95473 5.72917 7.33423C5.72917 7.71373 5.42117 8.02173 5.04167 8.02173ZM5.04167 5.27173H3.66667C3.28717 5.27173 2.97917 4.96373 2.97917 4.58423C2.97917 4.20473 3.28717 3.89673 3.66667 3.89673H5.04167C5.42117 3.89673 5.72917 4.20473 5.72917 4.58423C5.72917 4.96373 5.42117 5.27173 5.04167 5.27173ZM9.625 13.5217H8.25C7.8705 13.5217 7.5625 13.2137 7.5625 12.8342C7.5625 12.4547 7.8705 12.1467 8.25 12.1467H9.625C10.0045 12.1467 10.3125 12.4547 10.3125 12.8342C10.3125 13.2137 10.0045 13.5217 9.625 13.5217ZM9.625 10.7717H8.25C7.8705 10.7717 7.5625 10.4637 7.5625 10.0842C7.5625 9.70473 7.8705 9.39673 8.25 9.39673H9.625C10.0045 9.39673 10.3125 9.70473 10.3125 10.0842C10.3125 10.4637 10.0045 10.7717 9.625 10.7717ZM9.625 8.02173H8.25C7.8705 8.02173 7.5625 7.71373 7.5625 7.33423C7.5625 6.95473 7.8705 6.64673 8.25 6.64673H9.625C10.0045 6.64673 10.3125 6.95473 10.3125 7.33423C10.3125 7.71373 10.0045 8.02173 9.625 8.02173ZM9.625 5.27173H8.25C7.8705 5.27173 7.5625 4.96373 7.5625 4.58423C7.5625 4.20473 7.8705 3.89673 8.25 3.89673H9.625C10.0045 3.89673 10.3125 4.20473 10.3125 4.58423C10.3125 4.96373 10.0045 5.27173 9.625 5.27173Z" fill="#7DBA28"/>
<path d="M20.7357 9.9395L14.209 8.57275V22.001H20.3965C21.2811 22.001 22.0007 21.2814 22.0007 20.3968V11.507C22.0007 10.7498 21.4846 10.1054 20.7357 9.9395ZM18.5632 19.251H17.1882C16.8087 19.251 16.5007 18.943 16.5007 18.5635C16.5007 18.184 16.8087 17.876 17.1882 17.876H18.5632C18.9427 17.876 19.2507 18.184 19.2507 18.5635C19.2507 18.943 18.9427 19.251 18.5632 19.251ZM18.5632 16.501H17.1882C16.8087 16.501 16.5007 16.193 16.5007 15.8135C16.5007 15.434 16.8087 15.126 17.1882 15.126H18.5632C18.9427 15.126 19.2507 15.434 19.2507 15.8135C19.2507 16.193 18.9427 16.501 18.5632 16.501ZM18.5632 13.751H17.1882C16.8087 13.751 16.5007 13.443 16.5007 13.0635C16.5007 12.684 16.8087 12.376 17.1882 12.376H18.5632C18.9427 12.376 19.2507 12.684 19.2507 13.0635C19.2507 13.443 18.9427 13.751 18.5632 13.751Z" fill="#7DBA28"/>
</g>
<defs>
<clipPath id="clip0_1293_174">
<rect width="22" height="22" fill="white" transform="translate(0 0.000976562)"/>
</clipPath>
</defs>
</svg>
