<svg width="16" height="15" viewBox="0 0 16 15" fill="none" xmlns="http://www.w3.org/2000/svg">
<g clip-path="url(#clip0_1294_128)">
<path d="M8 2.6377C8.77665 2.6377 9.40625 2.04745 9.40625 1.31934C9.40625 0.591226 8.77665 0.000976562 8 0.000976562C7.22335 0.000976562 6.59375 0.591226 6.59375 1.31934C6.59375 2.04745 7.22335 2.6377 8 2.6377Z" fill="#7DBA28"/>
<path d="M1.43555 8.3813H4.13617L4.58617 5.64614C4.3343 5.42349 3.99555 5.28696 3.62305 5.28696H3.00377C3.77655 5.28406 4.4043 4.69391 4.4043 3.96875C4.4043 3.24181 3.77345 2.65039 2.99805 2.65039C2.22264 2.65039 1.5918 3.24181 1.5918 3.96875C1.5918 4.69391 2.21955 5.28406 2.99233 5.28696H2.37305C1.59773 5.28696 0.966797 5.87847 0.966797 6.60532V7.94185C0.966797 8.18442 1.1768 8.3813 1.43555 8.3813Z" fill="#7DBA28"/>
<path d="M10.0312 3.95605C10.0312 3.22891 9.40031 2.6377 8.625 2.6377H8H7.375C6.59969 2.6377 5.96875 3.22891 5.96875 3.95605V4.44678H10.0312V3.95605Z" fill="#7DBA28"/>
<path d="M2.04028 11.9158C2.81153 11.9112 3.4375 11.3218 3.4375 10.5977C3.4375 9.87071 2.80666 9.2793 2.03125 9.2793C1.25584 9.2793 0.625 9.87071 0.625 10.5977C0.625 11.3218 1.25097 11.9112 2.02222 11.9158H1.40625C0.630938 11.9158 0 12.5073 0 13.2342V14.5616C0 14.8042 0.21 15.0011 0.46875 15.0011H3.04719L3.51 12.1877C3.27312 12.0172 2.97688 11.9158 2.65625 11.9158H2.04028Z" fill="#7DBA28"/>
<path d="M11.4141 5.64614L11.8641 8.3813H14.5647C14.8234 8.3813 15.0334 8.18442 15.0334 7.94185V6.60532C15.0334 5.87847 14.4025 5.28696 13.6272 5.28696H13.0079C13.7807 5.28406 14.4084 4.69391 14.4084 3.96875C14.4084 3.24181 13.7776 2.65039 13.0022 2.65039C12.2268 2.65039 11.5959 3.24181 11.5959 3.96875C11.5959 4.69391 12.2237 5.28406 12.9965 5.28696H12.3772C12.0047 5.28696 11.6659 5.42349 11.4141 5.64614Z" fill="#7DBA28"/>
<path d="M14.594 11.9158H13.978C14.7493 11.9112 15.3752 11.3218 15.3752 10.5977C15.3752 9.87071 14.7444 9.2793 13.969 9.2793C13.1936 9.2793 12.5627 9.87071 12.5627 10.5977C12.5627 11.3218 13.1887 11.9112 13.96 11.9158H13.344C13.0234 11.9158 12.7271 12.0172 12.4902 12.1877L12.953 15.0011H15.5315C15.7902 15.0011 16.0002 14.8042 16.0002 14.5616V13.2342C16.0002 12.5073 15.3693 11.9158 14.594 11.9158Z" fill="#7DBA28"/>
<path d="M5.58828 5.32568L3.99609 15.001H12.0049L10.4127 5.32568H5.58828Z" fill="#7DBA28"/>
</g>
<defs>
<clipPath id="clip0_1294_128">
<rect width="16" height="15" fill="white" transform="translate(0 0.000976562)"/>
</clipPath>
</defs>
</svg>
