<svg width="18" height="18" viewBox="0 0 18 18" fill="none" xmlns="http://www.w3.org/2000/svg">
<path d="M2.67962 1.32038L3.29289 0.707107C3.68342 0.316583 4.31658 0.316582 4.70711 0.707106L7.29289 3.29289C7.68342 3.68342 7.68342 4.31658 7.29289 4.70711L5.50048 6.49952C5.2016 6.7984 5.1275 7.255 5.31653 7.63307C6.40929 9.81858 8.18142 11.5907 10.3669 12.6835C10.745 12.8725 11.2016 12.7984 11.5005 12.4995L13.2929 10.7071C13.6834 10.3166 14.3166 10.3166 14.7071 10.7071L17.2929 13.2929C17.6834 13.6834 17.6834 14.3166 17.2929 14.7071L16.6796 15.3204C14.5683 17.4317 11.2257 17.6693 8.83698 15.8777L7.62857 14.9714C5.88504 13.6638 4.33622 12.115 3.02857 10.3714L2.12226 9.16302C0.330722 6.7743 0.568269 3.43173 2.67962 1.32038Z" fill="#777E90"/>
</svg>
