<svg width="20" height="16" viewBox="0 0 20 16" fill="none" xmlns="http://www.w3.org/2000/svg">
<path d="M2.99782 0.000976562H0.532113C0.236078 0.000976562 0 0.240802 0 0.53309V2.82267C0 3.11496 0.236078 3.35478 0.532113 3.35478H18.6577C18.95 3.35478 19.1898 3.11871 19.1898 2.82267V0.53309C19.1898 0.240802 18.9537 0.000976562 18.6577 0.000976562H16.6229H2.99782ZM9.07214 0.000976562H6.84252H9.07214ZM12.3585 0.000976562H10.1963H12.3585ZM15.4987 0.000976562H13.4827H15.4987Z" fill="#7DBA28"/>
<path d="M2.0625 6.75342H3.80873V11.9809H2.0625V6.75342Z" fill="#7DBA28"/>
<path d="M2.0625 4.46021H9.88306V5.62935H2.0625V4.46021Z" fill="#7DBA28"/>
<path d="M8.13867 6.75342H9.8849V11.9809H8.13867V6.75342Z" fill="#7DBA28"/>
<path d="M4.93359 6.75342H7.00958V11.9809H4.93359V6.75342Z" fill="#7DBA28"/>
<path d="M18.6223 14.3455H17.1684V4.46021H11.0078V14.3455H9.88367V13.1089H2.06311V14.3455H0.56795C0.256927 14.3455 0.00585938 14.5966 0.00585938 14.9076C0.00585938 15.2186 0.256927 15.4697 0.56795 15.4697H18.6186C18.9296 15.4697 19.1806 15.2186 19.1806 14.9076C19.1844 14.5966 18.9333 14.3455 18.6223 14.3455ZM12.6566 10.5233C12.3456 10.5233 12.0946 10.2722 12.0946 9.9612C12.0946 9.65018 12.3456 9.39911 12.6566 9.39911C12.9677 9.39911 13.2187 9.65018 13.2187 9.9612C13.2187 10.2722 12.9677 10.5233 12.6566 10.5233Z" fill="#7DBA28"/>
</svg>
